<?xml version="1.0" encoding="utf-8"?>
<!-- Generator: Adobe Illustrator 18.0.0, SVG Export Plug-In . SVG Version: 6.00 Build 0)  -->
<!DOCTYPE svg PUBLIC "-//W3C//DTD SVG 1.1//EN" "http://www.w3.org/Graphics/SVG/1.1/DTD/svg11.dtd">
<svg version="1.1" id="Layer_2" xmlns="http://www.w3.org/2000/svg" xmlns:xlink="http://www.w3.org/1999/xlink" x="0px" y="0px"
	 viewBox="0 0 216 54" enable-background="new 0 0 216 54" xml:space="preserve">
<path fill="#C4DC0A" d="M11.1,40.8c-3.5,0-6.1-0.7-7.9-2.1c-1.8-1.4-2.7-3.4-2.7-6c0-3.2,1.3-5.5,3.8-6.9c2.5-1.4,6.1-2.4,10.7-2.8
	v-1.4c0-1.6-0.4-2.7-1.3-3.4c-0.9-0.7-2.2-1-3.8-1c-1.2,0-2.3,0.1-3.4,0.4c-1.1,0.3-2.1,0.7-3.1,1.2L2,15.4c1.1-0.6,2.4-1,3.9-1.4
	s3.1-0.6,5-0.6c2.9,0,5.3,0.7,7,2.1c1.7,1.4,2.6,3.7,2.6,7v16.4c-1.1,0.6-2.4,1-4,1.4C14.9,40.6,13.1,40.8,11.1,40.8z M15,25.8
	c-3.1,0.4-5.4,1-6.8,2C6.7,28.7,6,30.3,6,32.6c0,1.7,0.5,2.9,1.4,3.7c0.9,0.8,2.3,1.2,4.1,1.2c1.4,0,2.6-0.2,3.5-0.7V25.8z"/>
<path fill="#C4DC0A" d="M36.5,40.6c-0.7,0-1.4,0-2.2-0.1c-0.7-0.1-1.3-0.2-1.7-0.4v10.7h-5.8V15.3c1.1-0.6,2.4-1.1,3.8-1.4
	c1.4-0.3,3.2-0.5,5.2-0.5c3.8,0,6.8,1.2,8.9,3.5c2.2,2.4,3.2,5.6,3.2,9.8c0,4.3-1,7.7-3.1,10.1C42.7,39.4,39.9,40.6,36.5,40.6z
	 M35.6,17c-1.2,0-2.2,0.2-3,0.5v19.1c0.7,0.3,1.5,0.4,2.6,0.4c2.2,0,4-0.9,5.1-2.6c1.2-1.7,1.8-4.2,1.8-7.5c0-3.3-0.5-5.8-1.5-7.5
	C39.6,17.8,38,17,35.6,17z"/>
<path fill="#C4DC0A" d="M62.9,40.6c-0.7,0-1.4,0-2.2-0.1c-0.7-0.1-1.3-0.2-1.7-0.4v10.7h-5.8V15.3c1.1-0.6,2.4-1.1,3.8-1.4
	c1.4-0.3,3.2-0.5,5.2-0.5c3.8,0,6.8,1.2,8.9,3.5c2.2,2.4,3.2,5.6,3.2,9.8c0,4.3-1,7.7-3.1,10.1C69.1,39.4,66.4,40.6,62.9,40.6z
	 M62.1,17c-1.2,0-2.2,0.2-3,0.5v19.1c0.7,0.3,1.5,0.4,2.6,0.4c2.2,0,4-0.9,5.1-2.6c1.2-1.7,1.8-4.2,1.8-7.5c0-3.3-0.5-5.8-1.5-7.5
	C66.1,17.8,64.4,17,62.1,17z"/>
<path fill="#F5F5F5" d="M88.3,40.6c-2.4,0-4.2-0.7-5.4-2.1c-1.2-1.4-1.8-3.1-1.8-5.1V17.7h-2.9v-3.8h2.9V8.1L87,6.4v7.5h4.2v3.8H87
	v15.4c0,2.3,0.9,3.4,2.8,3.4c0.4,0,0.9-0.1,1.4-0.2v3.7c-0.3,0.1-0.7,0.3-1.2,0.4C89.5,40.5,88.9,40.6,88.3,40.6z"/>
<path fill="#F5F5F5" d="M110.8,40.3V21.8c0-1.3-0.4-2.4-1.1-3.2c-0.7-0.8-1.9-1.2-3.5-1.2c-1.6,0-3,0.4-4.1,1.1v21.9h-5.9V1.8h5.9
	V15c1.9-0.9,3.8-1.4,5.8-1.4c3,0,5.2,0.8,6.7,2.3c1.4,1.5,2.1,3.4,2.1,5.7v18.7H110.8z"/>
<rect x="123.1" y="13.9" fill="#F5F5F5" width="5.9" height="26.4"/>
<path fill="#F5F5F5" d="M150,40.3V21.6c0-1.3-0.4-2.3-1.1-3.2c-0.7-0.8-1.9-1.2-3.6-1.2c-0.9,0-1.6,0.1-2.2,0.2
	c-0.6,0.1-1.2,0.3-1.8,0.6v22.4h-5.9v-25c1.2-0.6,2.7-1.1,4.4-1.4c1.7-0.3,3.6-0.5,5.7-0.5c3.6,0,6.2,0.8,7.9,2.3
	c1.6,1.5,2.5,3.5,2.5,5.8v18.8H150z"/>
<path fill="#F5F5F5" d="M171.6,51.3c-1.9,0-3.6-0.2-5.1-0.5c-1.5-0.3-2.8-0.8-3.7-1.4l1.6-3.9c0.8,0.4,1.7,0.8,2.8,1.1
	c1.1,0.3,2.2,0.5,3.4,0.5c2.1,0,3.6-0.5,4.6-1.6c0.9-1,1.4-2.5,1.4-4.4v-1.7c-1.1,0.7-2.7,1-4.9,1c-3.1,0-5.7-1.1-7.6-3.4
	c-1.9-2.3-2.9-5.4-2.9-9.4c0-4.4,1.1-7.9,3.2-10.4c2.1-2.5,5.3-3.8,9.4-3.8c1.8,0,3.5,0.2,4.9,0.5c1.5,0.3,2.6,0.8,3.5,1.4v25.3
	c0,3.5-0.9,6.1-2.8,7.9C177.5,50.4,174.9,51.3,171.6,51.3z M176.5,17.5c-0.7-0.4-1.7-0.6-3-0.6c-2.2,0-3.8,0.9-4.9,2.7
	c-1,1.8-1.6,4.4-1.6,7.7c0,3.3,0.5,5.7,1.5,7.3c1,1.6,2.5,2.4,4.7,2.4c1.3,0,2.4-0.3,3.3-0.8V17.5z"/>
<path fill="#F5F5F5" d="M194.1,40.7c-1.5,0-2.8-0.2-4.1-0.5c-1.2-0.3-2.3-0.8-3.1-1.4l1.5-3.8c0.5,0.4,1.2,0.8,2,1.1
	c0.9,0.3,1.8,0.5,2.8,0.5c1.2,0,2.2-0.3,2.9-1c0.7-0.7,1.1-1.6,1.1-2.7c0-1.1-0.3-2-0.8-2.6s-1.8-1.3-3.6-2c-1.8-0.7-3.2-1.7-4-2.9
	c-0.8-1.2-1.3-2.6-1.3-4.2c0-2.1,0.8-3.9,2.3-5.4c1.5-1.5,3.5-2.2,5.9-2.2c1.4,0,2.7,0.2,3.8,0.5c1.1,0.3,2.1,0.8,3,1.4l-1.4,3.5
	c-0.5-0.4-1.1-0.7-1.8-1c-0.7-0.3-1.5-0.4-2.4-0.4c-1.2,0-2.1,0.3-2.7,1c-0.7,0.7-1,1.5-1,2.5c0,1,0.3,1.8,1,2.4
	c0.6,0.6,1.9,1.3,3.7,2.1c1.8,0.8,3.2,1.7,4.1,3c0.9,1.2,1.3,2.7,1.3,4.5c0,2.3-0.8,4.2-2.5,5.7C199.1,40,196.9,40.7,194.1,40.7z"/>
<rect x="129" y="8" fill="#C4DC0A" width="5.9" height="5.9"/>
<g>
	<path fill="#F5F5F5" d="M206.7,14.4v7.2h-0.6v-7.2h-1.4v-0.4h3.4v0.4H206.7z"/>
	<path fill="#F5F5F5" d="M214.8,21.6l-0.6-6.4c0-0.1,0-0.3,0-0.5c0-0.2,0-0.3,0-0.4c0,0.1,0,0.2-0.1,0.3s-0.1,0.3-0.1,0.6l-1.6,6.4
		h-0.5l-1.6-6.4c0-0.2-0.1-0.3-0.1-0.5c0-0.1,0-0.3-0.1-0.4l-0.1,0.9l-0.6,6.4l-0.5,0l0.8-7.6l0.7,0l1.5,6.2
		c0.1,0.2,0.1,0.4,0.1,0.5c0,0.1,0,0.2,0.1,0.3c0-0.1,0-0.2,0.1-0.3c0-0.1,0.1-0.3,0.1-0.6l1.5-6.2l0.7,0l0.8,7.6L214.8,21.6z"/>
</g>
</svg>
